<svg data-v-fde0c5aa="" xmlns="http://www.w3.org/2000/svg" viewBox="0 0 300 300" class="iconAbove"><!----><defs data-v-fde0c5aa=""><!----></defs><rect data-v-fde0c5aa="" fill="#2B282C" x="0" y="0" width="300px" height="300px" class="logo-background-square"></rect><defs data-v-fde0c5aa=""><!----></defs><g data-v-fde0c5aa="" id="967bfc42-54d9-4796-bbb1-75b7267c6d5e" fill="#ffffff" transform="matrix(3.414034366607666,0,0,3.414034366607666,18.62045139915047,166.27189514573806)"><path d="M0.64 12.85L0.64 12.85L0.64 12.85Q0.30 12.61 0.45 12.34L0.45 12.34L0.80 11.70L0.80 11.70Q0.98 11.36 1.37 11.62L1.37 11.62L1.37 11.62Q1.76 11.88 2.29 12.00L2.29 12.00L2.29 12.00Q2.82 12.13 3.26 12.13L3.26 12.13L3.26 12.13Q3.57 12.13 3.83 12.07L3.83 12.07L3.83 12.07Q4.10 12.00 4.29 11.83L4.29 11.83L4.29 11.83Q4.47 11.65 4.47 11.31L4.47 11.31L4.47 11.31Q4.47 11.10 4.36 10.96L4.36 10.96L4.36 10.96Q4.25 10.81 4.08 10.74L4.08 10.74L4.08 10.74Q3.91 10.66 3.72 10.62L3.72 10.62L3.72 10.62Q3.47 10.55 2.99 10.41L2.99 10.41L2.99 10.41Q2.52 10.27 2.08 10.08L2.08 10.08L2.08 10.08Q1.72 9.92 1.37 9.64L1.37 9.64L1.37 9.64Q1.03 9.35 0.86 9.00L0.86 9.00L0.86 9.00Q0.70 8.65 0.70 8.14L0.70 8.14L0.70 8.14Q0.70 7.45 1.10 6.93L1.10 6.93L1.10 6.93Q1.50 6.41 2.14 6.21L2.14 6.21L2.14 6.21Q2.78 6.02 3.73 6.02L3.73 6.02L3.73 6.02Q4.37 6.02 4.98 6.20L4.98 6.20L4.98 6.20Q5.58 6.38 5.84 6.55L5.84 6.55L5.84 6.55Q6.25 6.81 6.05 7.10L6.05 7.10L5.63 7.71L5.63 7.71Q5.44 7.98 5.02 7.75L5.02 7.75L5.02 7.75Q4.70 7.57 4.39 7.46L4.39 7.46L4.39 7.46Q4.07 7.36 3.69 7.36L3.69 7.36L3.69 7.36Q3.43 7.36 3.19 7.41L3.19 7.41L3.19 7.41Q2.95 7.46 2.79 7.62L2.79 7.62L2.79 7.62Q2.62 7.77 2.62 8.01L2.62 8.01L2.62 8.01Q2.62 8.27 2.77 8.42L2.77 8.42L2.77 8.42Q2.93 8.57 3.13 8.63L3.13 8.63L3.13 8.63Q3.33 8.70 3.51 8.76L3.51 8.76L3.51 8.76Q3.90 8.89 4.29 9.00L4.29 9.00L4.29 9.00Q4.68 9.11 5.08 9.27L5.08 9.27L5.08 9.27Q5.43 9.41 5.76 9.66L5.76 9.66L5.76 9.66Q6.08 9.91 6.23 10.30L6.23 10.30L6.23 10.30Q6.38 10.69 6.38 11.19L6.38 11.19L6.38 11.19Q6.38 11.85 5.99 12.42L5.99 12.42L5.99 12.42Q5.59 12.99 4.94 13.23L4.94 13.23L4.94 13.23Q4.29 13.47 3.43 13.47L3.43 13.47L3.43 13.47Q2.47 13.47 1.79 13.33L1.79 13.33L1.79 13.33Q1.11 13.19 0.64 12.85ZM7.42 11.42L7.42 11.42L7.42 11.42Q7.42 10.05 8.72 9.43L8.72 9.43L8.72 9.43Q10.03 8.82 11.70 8.78L11.70 8.78L11.70 8.50L11.70 8.50Q11.70 7.88 11.39 7.62L11.39 7.62L11.39 7.62Q11.07 7.36 10.51 7.36L10.51 7.36L10.51 7.36Q10.12 7.36 9.81 7.47L9.81 7.47L9.81 7.47Q9.51 7.58 9.29 7.73L9.29 7.73L9.29 7.73Q9.06 7.88 8.89 8.03L8.89 8.03L8.89 8.03Q8.57 8.30 8.37 8.05L8.37 8.05L7.80 7.36L7.80 7.36Q7.59 7.10 7.90 6.82L7.90 6.82L7.90 6.82Q8.14 6.61 8.46 6.45L8.46 6.45L8.46 6.45Q8.78 6.30 9.30 6.16L9.30 6.16L9.30 6.16Q9.83 6.02 10.67 6.02L10.67 6.02L10.67 6.02Q12.09 6.02 12.85 6.67L12.85 6.67L12.85 6.67Q13.62 7.33 13.62 8.61L13.62 8.61L13.62 12.92L13.62 12.92Q13.62 13.33 13.21 13.33L13.21 13.33L12.09 13.33L12.09 13.33Q11.72 13.33 11.72 12.92L11.72 12.92L11.72 12.71L11.70 12.71L11.70 12.71Q11.30 13.10 10.74 13.29L10.74 13.29L10.74 13.29Q10.17 13.47 9.70 13.47L9.70 13.47L9.70 13.47Q8.58 13.47 8.00 12.92L8.00 12.92L8.00 12.92Q7.42 12.37 7.42 11.42ZM9.44 11.38L9.44 11.38L9.44 11.38Q9.44 11.61 9.54 11.79L9.54 11.79L9.54 11.79Q9.63 11.96 9.84 12.04L9.84 12.04L9.84 12.04Q10.04 12.13 10.29 12.13L10.29 12.13L10.29 12.13Q10.64 12.13 10.97 12.03L10.97 12.03L10.97 12.03Q11.30 11.94 11.70 11.58L11.70 11.58L11.70 10.10L11.70 10.10Q10.55 10.23 10.17 10.43L10.17 10.43L10.17 10.43Q9.78 10.64 9.61 10.86L9.61 10.86L9.61 10.86Q9.44 11.07 9.44 11.38ZM15.62 7.52L15.24 7.52L15.24 7.52Q14.83 7.52 14.83 7.18L14.83 7.18L14.83 6.49L14.83 6.49Q14.83 6.15 15.24 6.15L15.24 6.15L15.62 6.15L15.62 5.20L15.62 5.20Q15.62 3.94 16.34 3.52L16.34 3.52L16.34 3.52Q17.06 3.10 18.05 3.10L18.05 3.10L18.05 3.10Q18.52 3.10 18.86 3.16L18.86 3.16L18.86 3.16Q19.20 3.21 19.46 3.29L19.46 3.29L19.46 3.29Q19.70 3.38 19.63 3.64L19.63 3.64L19.43 4.41L19.43 4.41Q19.37 4.63 19.11 4.55L19.11 4.55L19.11 4.55Q18.96 4.49 18.69 4.47L18.69 4.47L18.69 4.47Q18.42 4.44 18.27 4.44L18.27 4.44L18.27 4.44Q17.77 4.44 17.65 4.79L17.65 4.79L17.65 4.79Q17.53 5.14 17.53 5.88L17.53 5.88L17.53 6.15L18.44 6.15L18.44 6.15Q18.84 6.15 18.84 6.49L18.84 6.49L18.84 7.18L18.84 7.18Q18.84 7.52 18.44 7.52L18.44 7.52L17.53 7.52L17.53 12.92L17.53 12.92Q17.53 13.33 17.12 13.33L17.12 13.33L16.03 13.33L16.03 13.33Q15.62 13.33 15.62 12.92L15.62 12.92L15.62 7.52ZM19.76 9.74L19.76 9.74L19.76 9.74Q19.76 8.01 20.62 7.01L20.62 7.01L20.62 7.01Q21.49 6.02 23.06 6.02L23.06 6.02L23.06 6.02Q24.90 6.02 25.79 6.96L25.79 6.96L25.79 6.96Q26.67 7.90 26.67 9.99L26.67 9.99L26.67 9.99Q26.67 10.40 26.29 10.40L26.29 10.40L21.78 10.40L21.78 10.40Q21.89 11.54 22.34 11.83L22.34 11.83L22.34 11.83Q22.79 12.13 23.39 12.13L23.39 12.13L23.39 12.13Q23.95 12.13 24.25 11.98L24.25 11.98L24.25 11.98Q24.55 11.83 24.76 11.57L24.76 11.57L24.76 11.57Q24.99 11.27 25.33 11.47L25.33 11.47L26.02 11.89L26.02 11.89Q26.42 12.13 26.13 12.48L26.13 12.48L26.13 12.48Q25.72 12.97 25.16 13.22L25.16 13.22L25.16 13.22Q24.60 13.47 23.39 13.47L23.39 13.47L23.39 13.47Q21.42 13.47 20.59 12.47L20.59 12.47L20.59 12.47Q19.76 11.47 19.76 9.74ZM21.79 9.04L21.79 9.04L24.76 9.04L24.76 9.04Q24.76 8.30 24.39 7.83L24.39 7.83L24.39 7.83Q24.02 7.36 23.21 7.36L23.21 7.36L23.21 7.36Q22.57 7.36 22.20 7.81L22.20 7.81L22.20 7.81Q21.82 8.26 21.79 9.04ZM27.78 9.74L27.78 9.74L27.78 9.74Q27.78 8.00 28.66 7.01L28.66 7.01L28.66 7.01Q29.53 6.02 31.34 6.02L31.34 6.02L31.34 6.02Q32.40 6.02 32.99 6.30L32.99 6.30L32.99 6.30Q33.58 6.58 33.93 7.12L33.93 7.12L33.93 7.12Q34.15 7.44 33.87 7.62L33.87 7.62L33.14 8.10L33.14 8.10Q32.83 8.31 32.60 7.94L32.60 7.94L32.60 7.94Q32.48 7.77 32.16 7.56L32.16 7.56L32.16 7.56Q31.83 7.36 31.34 7.36L31.34 7.36L31.34 7.36Q30.57 7.36 30.19 7.90L30.19 7.90L30.19 7.90Q29.80 8.44 29.80 9.74L29.80 9.74L29.80 9.74Q29.80 11.04 30.19 11.58L30.19 11.58L30.19 11.58Q30.57 12.13 31.34 12.13L31.34 12.13L31.34 12.13Q31.90 12.13 32.24 11.89L32.24 11.89L32.24 11.89Q32.58 11.66 32.88 11.29L32.88 11.29L32.88 11.29Q33.14 10.98 33.43 11.20L33.43 11.20L34.06 11.70L34.06 11.70Q34.35 11.93 34.10 12.30L34.10 12.30L34.10 12.30Q33.83 12.70 33.19 13.08L33.19 13.08L33.19 13.08Q32.55 13.47 31.34 13.47L31.34 13.47L31.34 13.47Q29.53 13.47 28.66 12.48L28.66 12.48L28.66 12.48Q27.78 11.48 27.78 9.74ZM35.21 9.74L35.21 9.74L35.21 9.74Q35.21 8.01 36.07 7.01L36.07 7.01L36.07 7.01Q36.93 6.02 38.51 6.02L38.51 6.02L38.51 6.02Q40.35 6.02 41.23 6.96L41.23 6.96L41.23 6.96Q42.12 7.90 42.12 9.99L42.12 9.99L42.12 9.99Q42.12 10.40 41.74 10.40L41.74 10.40L37.23 10.40L37.23 10.40Q37.34 11.54 37.79 11.83L37.79 11.83L37.79 11.83Q38.24 12.13 38.83 12.13L38.83 12.13L38.83 12.13Q39.40 12.13 39.70 11.98L39.70 11.98L39.70 11.98Q40.00 11.83 40.21 11.57L40.21 11.57L40.21 11.57Q40.44 11.27 40.78 11.47L40.78 11.47L41.47 11.89L41.47 11.89Q41.87 12.13 41.58 12.48L41.58 12.48L41.58 12.48Q41.17 12.97 40.61 13.22L40.61 13.22L40.61 13.22Q40.04 13.47 38.83 13.47L38.83 13.47L38.83 13.47Q36.87 13.47 36.04 12.47L36.04 12.47L36.04 12.47Q35.21 11.47 35.21 9.74ZM37.24 9.04L37.24 9.04L40.21 9.04L40.21 9.04Q40.21 8.30 39.84 7.83L39.84 7.83L39.84 7.83Q39.47 7.36 38.66 7.36L38.66 7.36L38.66 7.36Q38.02 7.36 37.65 7.81L37.65 7.81L37.65 7.81Q37.27 8.26 37.24 9.04ZM45.12 13.33L44.02 13.33L44.02 13.33Q43.61 13.33 43.61 12.92L43.61 12.92L43.61 6.56L43.61 6.56Q43.61 6.15 44.02 6.15L44.02 6.15L45.10 6.15L45.10 6.15Q45.51 6.15 45.51 6.56L45.51 6.56L45.51 7.12L45.54 7.12L45.54 7.12Q45.72 6.69 46.14 6.35L46.14 6.35L46.14 6.35Q46.55 6.02 47.12 6.02L47.12 6.02L47.12 6.02Q47.51 6.02 47.76 6.11L47.76 6.11L47.76 6.11Q48.00 6.20 47.95 6.44L47.95 6.44L47.76 7.25L47.76 7.25Q47.69 7.53 47.39 7.42L47.39 7.42L47.39 7.42Q47.21 7.36 47.04 7.36L47.04 7.36L47.04 7.36Q46.39 7.36 45.96 8.14L45.96 8.14L45.96 8.14Q45.53 8.93 45.53 10.43L45.53 10.43L45.53 12.92L45.53 12.92Q45.53 13.33 45.12 13.33L45.12 13.33ZM49.21 7.52L48.75 7.52L48.75 7.52Q48.34 7.52 48.34 7.18L48.34 7.18L48.34 6.49L48.34 6.49Q48.34 6.15 48.75 6.15L48.75 6.15L49.21 6.15L49.21 5.91L49.21 5.91Q49.21 5.61 49.36 5.35L49.36 5.35L49.88 4.43L49.88 4.43Q50.03 4.17 50.24 4.17L50.24 4.17L50.72 4.17L50.72 4.17Q51.13 4.17 51.13 4.58L51.13 4.58L51.13 6.15L52.23 6.15L52.23 6.15Q52.64 6.15 52.64 6.49L52.64 6.49L52.64 7.18L52.64 7.18Q52.64 7.52 52.23 7.52L52.23 7.52L51.13 7.52L51.13 10.91L51.13 10.91Q51.13 11.61 51.23 11.91L51.23 11.91L51.23 11.91Q51.32 12.22 51.74 12.22L51.74 12.22L51.74 12.22Q51.95 12.22 52.22 12.14L52.22 12.14L52.22 12.14Q52.49 12.07 52.64 12.00L52.64 12.00L52.64 12.00Q52.88 11.89 52.95 12.16L52.95 12.16L53.16 12.94L53.16 12.94Q53.22 13.17 52.98 13.28L52.98 13.28L52.98 13.28Q52.75 13.38 52.36 13.47L52.36 13.47L52.36 13.47Q51.97 13.56 51.57 13.56L51.57 13.56L51.57 13.56Q50.59 13.56 49.90 13.15L49.90 13.15L49.90 13.15Q49.21 12.75 49.21 11.49L49.21 11.49L49.21 7.52ZM55.95 13.33L54.85 13.33L54.85 13.33Q54.44 13.33 54.44 12.92L54.44 12.92L54.44 3.65L54.44 3.65Q54.44 3.24 54.85 3.24L54.85 3.24L55.95 3.24L55.95 3.24Q56.36 3.24 56.36 3.65L56.36 3.65L56.36 6.41L56.36 6.41Q56.36 6.69 56.33 6.96L56.33 6.96L56.37 6.96L56.37 6.96Q56.68 6.42 57.17 6.22L57.17 6.22L57.17 6.22Q57.65 6.02 58.34 6.02L58.34 6.02L58.34 6.02Q59.40 6.02 60.10 6.69L60.10 6.69L60.10 6.69Q60.80 7.36 60.80 9.13L60.80 9.13L60.80 12.92L60.80 12.92Q60.80 13.33 60.39 13.33L60.39 13.33L59.29 13.33L59.29 13.33Q58.88 13.33 58.88 12.92L58.88 12.92L58.88 9.63L58.88 9.63Q58.88 8.13 58.68 7.75L58.68 7.75L58.68 7.75Q58.47 7.36 57.80 7.36L57.80 7.36L57.80 7.36Q57.08 7.36 56.72 7.91L56.72 7.91L56.72 7.91Q56.36 8.47 56.36 10.23L56.36 10.23L56.36 12.92L56.36 12.92Q56.36 13.33 55.95 13.33L55.95 13.33ZM62.26 11.42L62.26 11.42L62.26 11.42Q62.26 10.05 63.57 9.43L63.57 9.43L63.57 9.43Q64.87 8.82 66.55 8.78L66.55 8.78L66.55 8.50L66.55 8.50Q66.55 7.88 66.23 7.62L66.23 7.62L66.23 7.62Q65.92 7.36 65.36 7.36L65.36 7.36L65.36 7.36Q64.96 7.36 64.66 7.47L64.66 7.47L64.66 7.47Q64.35 7.58 64.13 7.73L64.13 7.73L64.13 7.73Q63.91 7.88 63.73 8.03L63.73 8.03L63.73 8.03Q63.42 8.30 63.21 8.05L63.21 8.05L62.64 7.36L62.64 7.36Q62.43 7.10 62.75 6.82L62.75 6.82L62.75 6.82Q62.99 6.61 63.30 6.45L63.30 6.45L63.30 6.45Q63.62 6.30 64.15 6.16L64.15 6.16L64.15 6.16Q64.67 6.02 65.52 6.02L65.52 6.02L65.52 6.02Q66.94 6.02 67.70 6.67L67.70 6.67L67.70 6.67Q68.46 7.33 68.46 8.61L68.46 8.61L68.46 12.92L68.46 12.92Q68.46 13.33 68.05 13.33L68.05 13.33L66.93 13.33L66.93 13.33Q66.56 13.33 66.56 12.92L66.56 12.92L66.56 12.71L66.55 12.71L66.55 12.71Q66.14 13.10 65.58 13.29L65.58 13.29L65.58 13.29Q65.02 13.47 64.54 13.47L64.54 13.47L64.54 13.47Q63.42 13.47 62.84 12.92L62.84 12.92L62.84 12.92Q62.26 12.37 62.26 11.42ZM64.29 11.38L64.29 11.38L64.29 11.38Q64.29 11.61 64.38 11.79L64.38 11.79L64.38 11.79Q64.48 11.96 64.68 12.04L64.68 12.04L64.68 12.04Q64.89 12.13 65.14 12.13L65.14 12.13L65.14 12.13Q65.49 12.13 65.82 12.03L65.82 12.03L65.82 12.03Q66.14 11.94 66.55 11.58L66.55 11.58L66.55 10.10L66.55 10.10Q65.40 10.23 65.01 10.43L65.01 10.43L65.01 10.43Q64.62 10.64 64.45 10.86L64.45 10.86L64.45 10.86Q64.29 11.07 64.29 11.38ZM71.31 13.33L70.02 13.33L70.02 13.33Q69.43 13.33 69.77 12.83L69.77 12.83L72.04 9.55L70.04 6.65L70.04 6.65Q69.70 6.15 70.29 6.15L70.29 6.15L71.58 6.15L71.58 6.15Q71.89 6.15 72.04 6.43L72.04 6.43L73.10 8.27L74.16 6.43L74.16 6.43Q74.32 6.15 74.63 6.15L74.63 6.15L75.92 6.15L75.92 6.15Q76.51 6.15 76.17 6.65L76.17 6.65L74.16 9.55L76.43 12.83L76.43 12.83Q76.78 13.33 76.19 13.33L76.19 13.33L74.89 13.33L74.89 13.33Q74.59 13.33 74.43 13.06L74.43 13.06L73.10 10.83L71.78 13.06L71.78 13.06Q71.61 13.33 71.31 13.33L71.31 13.33Z"></path></g><defs data-v-fde0c5aa=""><!----></defs><g data-v-fde0c5aa="" id="c4b8cf09-d7ad-4790-a8a7-e884fb4672f4" stroke="none" fill="#746657" transform="matrix(0.7740165591239929,0,0,0.7740165591239929,108.47904205911384,85.04363309149939)"><path d="M27.931 15.658h44.008v3.52H27.931zM27.931 23.358h44.008v3.521H27.931z"></path><circle cx="77.481" cy="48.652" r="9"></circle><path d="M71.698 62.281c.08.04.161.074.241.112v-.112h-.241z"></path><path d="M79.293 8.989l.006 20.756c2.082.199 4.062.741 5.895 1.559V3.088H14.806v92.274h69.77v-.001h.617v-8.494l-5.878-3.526.001 6.125h-58.61V8.989h58.587z"></path><path d="M27.931 34.672h36.728a19.027 19.027 0 0 1 5.425-3.52H27.931v3.52zM27.931 50.213h30.633a18.838 18.838 0 0 1-.083-1.561c0-.662.035-1.315.102-1.96H27.931v3.521zM27.931 42.374H59.57a18.844 18.844 0 0 1 1.664-3.52H27.931v3.52zM27.931 58.007h33.037a19.008 19.008 0 0 1-1.558-3.521H27.931v3.521zM27.931 62.281h35.53V65.8h-35.53zM27.931 70.074h35.53v3.521h-35.53zM27.931 77.867h35.53v3.521h-35.53zM67.461 64.772v18.792l10-6 10 6V64.798a18.91 18.91 0 0 1-9.979 2.854c-3.566 0-7.026-1.01-10.021-2.88zM77.481 33.652c-8.284 0-15 6.716-15 15 0 4.427 1.93 8.394 4.979 11.14 2.657 2.392 6.163 3.86 10.021 3.86 3.837 0 7.327-1.453 9.979-3.823 3.074-2.747 5.021-6.729 5.021-11.177 0-8.284-6.715-15-15-15zm4.972 25.912c-1.517.692-3.196 1.088-4.972 1.088s-3.455-.396-4.972-1.088c-4.143-1.892-7.028-6.061-7.028-10.912 0-6.627 5.373-12 12-12s12 5.373 12 12c0 4.852-2.885 9.021-7.028 10.912z"></path></g><!----></svg>